<svg xmlns="http://www.w3.org/2000/svg" viewBox="0 0 63.049 17.072"><defs><style>.a{fill:#ffc901;}</style></defs><path class="a" d="M592.766,1396c-2.642,0-5.348,1.906-5.348,4.246a2.855,2.855,0,0,0,1.147,2.427c.411.325.411.8-.066,1.321a3.181,3.181,0,0,1-2.208,1.082,2.545,2.545,0,0,1-2.317-2.729c0-1,.65-3.141,3.248-5.091a13.25,13.25,0,0,1,7.752-2.946c5.672-4.528,10.262-5.351,13.6-5.351a23.745,23.745,0,0,1,8.53,1.82c1.473.563,7.189,2.946,11.238,4.723,4.243,1.755,7.9,2.817,10.413,2.817,2.014,0,4.916-.716,4.916-3.185a2.264,2.264,0,0,0-.867-1.907,1.3,1.3,0,0,1-.5-.888,2.381,2.381,0,0,1,2.252-2.3,2.706,2.706,0,0,1,2.468,2.816c0,3.292-3.593,5.524-6.019,6.521-4.46,4.744-8.964,6.651-13.337,6.651-3.2,0-6.279-.867-10.349-2.34-3.076-1.127-12.731-5.069-16.608-6.3a24.454,24.454,0,0,0-7.9-1.387Zm12.449-5.242a8.565,8.565,0,0,0-7.167,3.7,26.013,26.013,0,0,1,8.466,1.927c4.222,1.431,12.017,4.766,14.745,5.7a28.714,28.714,0,0,0,8.812,1.82c3.226,0,6.106-1.062,7.621-3.791-3.01.389-5.845-.087-10.025-1.712-3.2-1.234-12.038-5.285-15.026-6.3a23.039,23.039,0,0,0-7.383-1.343Z" transform="translate(-583.975 -1388.964)"/></svg>